<?xml version="1.0" encoding="UTF-8" standalone="no"?>
<!-- Created with Inkscape (http://www.inkscape.org/) -->

<svg
   xmlns:dc="http://purl.org/dc/elements/1.1/"
   xmlns:cc="http://creativecommons.org/ns#"
   xmlns:rdf="http://www.w3.org/1999/02/22-rdf-syntax-ns#"
   xmlns:svg="http://www.w3.org/2000/svg"
   xmlns="http://www.w3.org/2000/svg"
   xmlns:sodipodi="http://sodipodi.sourceforge.net/DTD/sodipodi-0.dtd"
   xmlns:inkscape="http://www.inkscape.org/namespaces/inkscape"
   width="100"
   height="32"
   viewBox="0 0 100 32.000001"
   id="svg2"
   version="1.1"
   inkscape:version="0.91 r13725"
   sodipodi:docname="desktop-logo.svg">
  <defs
     id="defs4" />
  <sodipodi:namedview
     id="base"
     pagecolor="#ffffff"
     bordercolor="#666666"
     borderopacity="1.0"
     inkscape:pageopacity="0"
     inkscape:pageshadow="2"
     inkscape:zoom="2.8973337"
     inkscape:cx="161.25754"
     inkscape:cy="6.7486885"
     inkscape:document-units="px"
     inkscape:current-layer="text4156"
     showgrid="false"
     inkscape:window-width="1366"
     inkscape:window-height="706"
     inkscape:window-x="-8"
     inkscape:window-y="-8"
     inkscape:window-maximized="1"
     showguides="true"
     inkscape:guide-bbox="true"
     units="px"
     fit-margin-top="0"
     fit-margin-left="0"
     fit-margin-right="0"
     fit-margin-bottom="0"
     showborder="true" />
  <metadata
     id="metadata7">
    <rdf:RDF>
      <cc:Work
         rdf:about="">
        <dc:format>image/svg+xml</dc:format>
        <dc:type
           rdf:resource="http://purl.org/dc/dcmitype/StillImage" />
        <dc:title></dc:title>
      </cc:Work>
    </rdf:RDF>
  </metadata>
  <g
     inkscape:label="Camada 1"
     inkscape:groupmode="layer"
     id="layer1"
     transform="translate(-184.47473,-362.43481)">
    <g
       transform="matrix(0.1946427,0,0,0.1946427,175.88542,343.55301)"
       id="g3777">
      <path
         d="m 218.988,175.308 46.299,-58.483 c 0,0 -19.102,35.546 -18.682,46.3 0.419,10.754 10.56,12.184 10.56,12.184 l -38.177,0 z"
         id="path238"
         inkscape:connector-curvature="0"
         style="clip-rule:evenodd;fill:#ffffff;fill-rule:evenodd" />
      <path
         d="m 299.402,97.33 c 0,0 -20.292,44.256 -23.949,52.18 -4.875,10.56 16.246,12.997 22.325,-0.194 7.764,-16.847 24.368,-51.985 24.368,-51.985 l -22.744,0 z"
         id="path240"
         inkscape:connector-curvature="0"
         style="clip-rule:evenodd;fill:#ffffff;fill-rule:evenodd" />
      <path
         d="m 286.406,175.308 c 0,0 18.602,-2.708 24.367,-12.995 8.542,-15.239 33.304,-64.982 33.304,-64.982 l 209.564,0 -36.551,77.978 -230.684,0 z"
         id="path242"
         inkscape:connector-curvature="0"
         style="clip-rule:evenodd;fill:#f4ce30;fill-rule:evenodd" />
      <path
         d="m 97.148,182.619 -23.95,0.194 c 0,0 -22.324,44.868 -27.616,56.452 -4.836,10.587 2.412,21.948 21.512,22.144 19.101,0.193 36.133,-11.566 43.863,-25.181 7.729,-13.615 26.805,-53.609 26.805,-53.609 l -19.888,0.194 c 0,0 -19.102,44.887 -25.18,54.015 -6.08,9.13 -29.267,8.953 -21.538,-3.849 7.729,-12.801 25.992,-50.36 25.992,-50.36 z"
         id="path244"
         inkscape:connector-curvature="0"
         style="clip-rule:evenodd;fill:#ffffff;fill-rule:evenodd" />
      <polygon
         points="158.068,259.783 158.068,259.783 180.812,259.783 217.77,182.213 198.288,182.406 178.375,225.262 172.689,182.213 149.133,182.213 111.363,259.783 132.481,259.783 154.818,210.642 "
         id="polygon246"
         style="clip-rule:evenodd;fill:#ffffff;fill-rule:evenodd" />
      <path
         d="m 250.26,182.213 24.381,0.193 -12.197,77.377 -25.992,0 3.655,-14.619 -22.744,0 -9.747,14.619 -19.889,0.195 62.533,-77.765 z m -18.682,45.08 13.403,0 2.843,-19.899 -16.246,19.899 z"
         id="path248"
         inkscape:connector-curvature="0"
         style="clip-rule:evenodd;fill:#ffffff;fill-rule:evenodd" />
      <polygon
         points="335.548,228.918 342.858,212.267 314.836,212.267 318.491,201.706 355.855,201.3 363.978,183.024 303.464,183.024 266.099,259.783 327.02,259.783 334.344,242.921 298.591,242.727 305.901,228.918 "
         id="polygon250"
         style="clip-rule:evenodd;fill:#ffffff;fill-rule:evenodd" />
      <path
         d="m 371.694,183.024 c 0,0 14.228,0.194 43.05,0 28.823,-0.194 14.229,29.843 3.668,37.966 -6.438,4.953 -11.384,5.491 -11.384,5.491 l -1.626,33.302 -26.804,0 2.03,-28.429 -8.935,0 -11.778,28.836 -24.773,-0.407 36.552,-76.759 z m 23.555,31.679 c 8.137,0.194 19.102,-15.239 6.093,-15.433 -5.295,-0.081 -13.402,0 -13.402,0 l -7.311,15.026 c 0,0.001 9.351,0.28 14.62,0.407 z"
         id="path252"
         inkscape:connector-curvature="0"
         style="clip-rule:evenodd;fill:#ffffff;fill-rule:evenodd" />
      <path
         d="m 413.933,260.19 37.782,-76.972 c 0,0 29.622,-0.119 41.819,-0.194 34.535,-0.211 5.292,50.149 -24.367,49.955 -10.955,-0.071 -18.276,0 -18.276,0 l -12.589,26.804 -24.369,0.407 z m 45.487,-44.269 c 0,0 6.888,-0.083 11.777,0 11.384,0.195 15.42,-14.408 6.903,-14.215 -8.516,0.195 -12.184,0 -12.184,0 l -6.496,14.215 z"
         id="path254"
         inkscape:connector-curvature="0"
         style="clip-rule:evenodd;fill:#ffffff;fill-rule:evenodd" />
    </g>
    <g
       transform="matrix(1,0,-0.2290607,1,0,0)"
       style="font-style:normal;font-weight:normal;font-size:12.5px;line-height:125%;font-family:sans-serif;letter-spacing:0px;word-spacing:0px;fill:#ffffff;fill-opacity:1;stroke:none;stroke-width:1px;stroke-linecap:butt;stroke-linejoin:miter;stroke-opacity:1"
       id="text4156" />
  </g>
</svg>
